<svg id="visual" viewBox="0 0 1080 1080" width="1080" height="1080" xmlns="http://www.w3.org/2000/svg" xmlns:xlink="http://www.w3.org/1999/xlink" version="1.1"><rect x="0" y="0" width="1080" height="1080" fill="#070809"></rect><path d="M0 767L30 757.7C60 748.3 120 729.7 180 724.3C240 719 300 727 360 729C420 731 480 727 540 727.8C600 728.7 660 734.3 720 739.3C780 744.3 840 748.7 900 745.7C960 742.7 1020 732.3 1050 727.2L1080 722L1080 1081L1050 1081C1020 1081 960 1081 900 1081C840 1081 780 1081 720 1081C660 1081 600 1081 540 1081C480 1081 420 1081 360 1081C300 1081 240 1081 180 1081C120 1081 60 1081 30 1081L0 1081Z" fill="#5c95d6"></path><path d="M0 823L30 815.3C60 807.7 120 792.3 180 784C240 775.7 300 774.3 360 782.3C420 790.3 480 807.7 540 809.8C600 812 660 799 720 800.3C780 801.7 840 817.3 900 819C960 820.7 1020 808.3 1050 802.2L1080 796L1080 1081L1050 1081C1020 1081 960 1081 900 1081C840 1081 780 1081 720 1081C660 1081 600 1081 540 1081C480 1081 420 1081 360 1081C300 1081 240 1081 180 1081C120 1081 60 1081 30 1081L0 1081Z" fill="#30b4ea"></path><path d="M0 873L30 872.7C60 872.3 120 871.7 180 874.3C240 877 300 883 360 877.8C420 872.7 480 856.3 540 854.7C600 853 660 866 720 871.8C780 877.7 840 876.3 900 873.7C960 871 1020 867 1050 865L1080 863L1080 1081L1050 1081C1020 1081 960 1081 900 1081C840 1081 780 1081 720 1081C660 1081 600 1081 540 1081C480 1081 420 1081 360 1081C300 1081 240 1081 180 1081C120 1081 60 1081 30 1081L0 1081Z" fill="#00d2f1"></path><path d="M0 964L30 963C60 962 120 960 180 959.8C240 959.7 300 961.3 360 962.7C420 964 480 965 540 963.2C600 961.3 660 956.7 720 947C780 937.3 840 922.7 900 920.3C960 918 1020 928 1050 933L1080 938L1080 1081L1050 1081C1020 1081 960 1081 900 1081C840 1081 780 1081 720 1081C660 1081 600 1081 540 1081C480 1081 420 1081 360 1081C300 1081 240 1081 180 1081C120 1081 60 1081 30 1081L0 1081Z" fill="#00eddb"></path><path d="M0 1031L30 1027.2C60 1023.3 120 1015.7 180 1008.3C240 1001 300 994 360 994C420 994 480 1001 540 1008.3C600 1015.7 660 1023.3 720 1021C780 1018.7 840 1006.3 900 1001C960 995.7 1020 997.3 1050 998.2L1080 999L1080 1081L1050 1081C1020 1081 960 1081 900 1081C840 1081 780 1081 720 1081C660 1081 600 1081 540 1081C480 1081 420 1081 360 1081C300 1081 240 1081 180 1081C120 1081 60 1081 30 1081L0 1081Z" fill="#00ff95"></path></svg>